<svg xmlns="http://www.w3.org/2000/svg" width="48" height="48" viewBox="0 0 24 24" fill="none" stroke="currentColor" stroke-width="2" stroke-linecap="round" stroke-linejoin="round" class="feather feather-gaudykle">
    <polyline points="8,8.5 12,4.5 16,8.5 "></polyline>
    <line x1="21" y1="22.5" x2="3" y2="22.5"></line>
    <line x1="21" y1="15.5" x2="3" y2="15.5"></line>
    <line x1="21" y1="8.5" x2="3" y2="8.5"></line>
    <line x1="12" y1="1.5" x2="12" y2="4.5"></line>
    <path d="M5,8.5c0.3,0.5,0.9,1.6,1,3c0.2,2-0.7,3.5-1,4"></path>
    <path d="M5,15.5c0.3,0.5,0.9,1.6,1,3c0.2,2-0.7,3.5-1,4"></path>
    <path d="M18.8,8.5c-0.3,0.5-0.9,1.6-1,3c-0.2,2,0.7,3.5,1,4"></path>
    <path d="M18.8,15.5c-0.3,0.5-0.9,1.6-1,3c-0.2,2,0.7,3.5,1,4"></path>
</svg>