<svg width="428" height="464" viewBox="0 0 428 464" fill="none" xmlns="http://www.w3.org/2000/svg">
<g clip-path="url(#clip0_101_2)">
<mask id="mask0_101_2" style="mask-type:luminance" maskUnits="userSpaceOnUse" x="0" y="0" width="428" height="464">
<path d="M428 0H0V464H428V0Z" fill="white"/>
</mask>
<g mask="url(#mask0_101_2)">
<path d="M-21 172.6C-1.15 108.775 46.5 84.1498 135 65.9998C223.5 47.8498 228.675 118 333 99.9998C437.325 81.9998 493.475 -58.3252 552.3 -6.00018C611.125 46.3248 624.8 245.125 568.3 309.3C511.8 373.475 454.475 247.7 326.3 250.7C198.125 253.7 142.425 340.825 55.6 321.3C-31.225 301.775 -40.85 236.425 -21 172.6Z" fill="#102EB1" fill-opacity="0.04"/>
<path d="M508.28 283.626C488.43 219.801 440.78 195.176 352.28 177.026C263.78 158.876 258.605 229.026 154.28 211.026C49.955 193.026 -6.19498 52.7012 -65.02 105.026C-123.845 157.351 -137.52 356.151 -81.02 420.326C-24.52 484.501 32.805 358.726 160.98 361.726C289.155 364.726 344.855 451.851 431.68 432.326C518.505 412.801 528.13 347.451 508.28 283.626Z" fill="#102EB1" fill-opacity="0.04"/>
<path d="M-180.349 127.112C-166.505 196.911 -99.9724 240.248 30.7406 294.087C161.454 347.927 187.546 282.286 342.516 342.474C497.487 402.662 547.06 561.252 650.623 534.839C754.187 508.427 826.6 321.996 756.768 236.824C686.937 151.651 566.644 249.632 371.295 194.149C175.946 138.667 113.281 31.6522 -24.6305 14.8928C-162.542 -1.86657 -194.192 57.3138 -180.349 127.112Z" fill="#102EB1" fill-opacity="0.04"/>
</g>
</g>
<defs>
<clipPath id="clip0_101_2">
<rect width="428" height="464" fill="white"/>
</clipPath>
</defs>
</svg>
