<svg xmlns="http://www.w3.org/2000/svg" xmlns:xlink="http://www.w3.org/1999/xlink" width="390" height="193" viewBox="0 0 390 193">
  <defs>
    <clipPath id="clip-path">
      <rect id="Rectangle_739" width="390" height="193" rx="8" transform="translate(12 114)" fill="#e6f4ff"/>
    </clipPath>
  </defs>
  <g transform="translate(-12 -114)" clip-path="url(#clip-path)">
    <g>
      <path d="M-1794.438,1392.426l-.524-.852c.073-.045,7.462-4.588,19.639-11.507,11.237-6.385,28.967-16.158,49.622-26.459,23.218-11.579,45.324-21.452,65.7-29.343,25.487-9.869,48.335-16.651,67.908-20.158a222.2,222.2,0,0,1,29.915-3.392,191.653,191.653,0,0,1,25.45.574c15.747,1.4,29.317,4.517,42.44,7.533,25.315,5.817,49.225,11.313,83.461,2.692,35.78-9.009,60.079-29.505,74.163-45.113a157.632,157.632,0,0,0,16.9-22.432,96.813,96.813,0,0,0,5.306-9.577l.911.413a97.9,97.9,0,0,1-5.366,9.689,158.652,158.652,0,0,1-17.006,22.577,155.207,155.207,0,0,1-30.08,25.869,146.308,146.308,0,0,1-44.582,19.543,146.833,146.833,0,0,1-24.053,4.069,133.409,133.409,0,0,1-21.242.048c-13.469-1.021-25.693-3.831-38.635-6.8-17.829-4.1-36.067-8.288-59.141-8.288a215.586,215.586,0,0,0-38.263,3.583c-44.2,7.919-96.908,31.241-133.343,49.411-20.635,10.291-38.348,20.055-49.574,26.433C-1786.991,1387.847-1794.365,1392.381-1794.438,1392.426Z" transform="translate(1781 -1080)" fill="#fff"/>
      <path d="M.262,157.826l-.524-.852c.073-.045,7.462-4.588,19.639-11.507C30.613,139.083,48.344,129.31,69,119.009c23.218-11.579,45.324-21.452,65.7-29.343,25.487-9.869,48.335-16.651,67.908-20.158a222.183,222.183,0,0,1,29.915-3.392,191.71,191.71,0,0,1,25.45.575c15.747,1.4,29.317,4.517,42.44,7.533,25.315,5.818,49.226,11.312,83.461,2.692,35.764-9.005,60.057-29.488,74.138-45.085A157.667,157.667,0,0,0,474.921,9.4a97.116,97.116,0,0,0,5.324-9.605l.91.414A97.939,97.939,0,0,1,475.789,9.9a158.654,158.654,0,0,1-17.006,22.577A155.2,155.2,0,0,1,428.7,58.342a146.311,146.311,0,0,1-44.582,19.543,146.84,146.84,0,0,1-24.053,4.069A133.426,133.426,0,0,1,338.828,82c-13.469-1.021-25.693-3.831-38.635-6.8-17.829-4.1-36.067-8.288-59.141-8.288a215.59,215.59,0,0,0-38.263,3.583c-44.2,7.918-96.9,31.238-133.335,49.407C48.819,130.19,31.1,139.954,19.879,146.333,7.714,153.244.335,157.781.262,157.826Z" transform="translate(50.036 164.132) rotate(-8)" fill="#fff"/>
    </g>
  </g>
</svg>
