<svg xmlns="http://www.w3.org/2000/svg" width="24" height="24" viewBox="0 0 512 512" fill="#102EB1">
    <path d="M68 512h55V406c0-14.8-17.9-22.2-28.3-11.7l-53.4 53.4C17.6 471.4 34.4 512 68 512zM447 188c24.1-24.1 65.4-7 65.4 27.1v111.6c0 102.3-83 185.3-185.3 185.3H123l324-324zm-76 170.6h43c34.8 0 62.9-28.2 62.9-62.9v-43c0-14.8-17.9-22.2-28.3-11.7l-89.4 89.4c-10.3 10.3-2.9 28.2 11.8 28.2zM444.9 0h-55v106c0 14.8 17.9 22.2 28.3 11.7l53.4-53.4C495.2 40.6 478.4 0 444.9 0zM185.7 0h204.1l-324 324C41.7 348.1.4 331 .4 296.9V185.3C.4 83 83.4 0 185.7 0zM35.8 259.4c0 14.8 17.9 22.2 28.3 11.7l89.4-89.4c10.5-10.5 3-28.3-11.7-28.3h-43c-34.8 0-62.9 28.2-62.9 62.9v43.1z"></path>
</svg>