<svg xmlns="http://www.w3.org/2000/svg" width="116" height="115.841" viewBox="0 0 116 115.841">
    <path id="ship" d="M11.558,90.3a5.784,5.784,0,1,0,10.749-4.276l-6.472-16.3,38.372-8.5v27.45a5.779,5.779,0,0,0,11.558,0V61.234l38.372,8.5-6.472,16.3A5.784,5.784,0,0,0,108.414,90.3l8.957-22.6a5.849,5.849,0,0,0-4.1-7.8L94.66,55.8V30.895a5.779,5.779,0,0,0-5.779-5.779H77.323V7.779A5.779,5.779,0,0,0,71.544,2H48.428a5.779,5.779,0,0,0-5.779,5.779V25.116H31.091a5.779,5.779,0,0,0-5.779,5.779V55.8L6.7,59.79a5.849,5.849,0,0,0-4.1,7.8ZM54.207,13.558H65.765V25.116H54.207ZM36.87,36.674H83.1V53.2l-21.845-4.97H58.715L36.87,53.2Zm73.451,65.187a25.312,25.312,0,0,0-5.779,2.6,12.02,12.02,0,0,1-12.136,0,26.7,26.7,0,0,0-26.237,0,12.367,12.367,0,0,1-12.251,0,26.814,26.814,0,0,0-26.237,0,12.02,12.02,0,0,1-12.136,0,25.312,25.312,0,0,0-5.779-2.6,5.779,5.779,0,0,0-7.57,4.161,5.779,5.779,0,0,0,3.872,7.166,12.136,12.136,0,0,1,3.294,1.445,23.116,23.116,0,0,0,11.558,3.178,23.929,23.929,0,0,0,12.024-3.238,15.314,15.314,0,0,1,14.79,0,23.983,23.983,0,0,0,23.809,0,15.314,15.314,0,0,1,14.794,0,23.116,23.116,0,0,0,23.694,0,12.136,12.136,0,0,1,3.294-1.445,5.841,5.841,0,1,0-3.005-11.269Z" transform="translate(-1.959 -2)" fill="#1121DA"></path>
</svg>